<?xml version="1.0" standalone="no"?>
<!DOCTYPE svg PUBLIC "-//W3C//DTD SVG 20010904//EN"
 "http://www.w3.org/TR/2001/REC-SVG-20010904/DTD/svg10.dtd">
<svg version="1.0" xmlns="http://www.w3.org/2000/svg"
 width="359.000000pt" height="394.000000pt" viewBox="0 0 359.000000 394.000000"
 preserveAspectRatio="xMidYMid meet">

<g transform="translate(0.000000,394.000000) scale(0.100000,-0.100000)"
fill="#000000" stroke="none">
<path d="M2100 3933 c-469 -37 -895 -325 -1108 -748 -92 -183 -135 -358 -136
-550 -1 -101 2 -125 18 -151 49 -82 168 -87 215 -10 21 34 31 77 60 247 48
273 137 446 324 626 145 140 287 223 473 279 110 32 302 44 421 24 341 -55
667 -298 827 -618 106 -211 133 -481 71 -697 -49 -171 -113 -283 -321 -561
-190 -254 -266 -393 -310 -566 -11 -46 -18 -140 -23 -338 -6 -263 -8 -277 -31
-325 -60 -124 -201 -207 -432 -254 -126 -26 -156 -129 -66 -227 56 -61 94 -71
211 -55 107 14 206 46 285 93 85 50 210 179 254 263 66 127 70 151 78 460 7
244 10 289 29 354 47 159 116 278 310 536 230 306 308 480 331 736 26 307 -55
625 -225 878 -277 415 -753 643 -1255 604z"/>
<path d="M2145 2572 c-69 -24 -110 -55 -139 -105 -37 -62 -48 -126 -35 -188
l11 -52 -83 -78 c-123 -114 -127 -116 -246 -101 -54 7 -129 19 -168 28 -204
43 -242 1 -164 -180 56 -129 116 -281 123 -310 6 -24 4 -28 -10 -22 -9 3 -150
82 -313 175 -163 93 -323 182 -355 200 -129 69 -246 21 -192 -79 7 -14 100
-180 206 -370 234 -418 305 -553 292 -558 -6 -2 -80 42 -166 98 -159 103 -198
120 -234 101 -24 -13 -416 -339 -420 -350 -1 -3 22 -31 53 -61 50 -49 56 -52
72 -39 10 9 81 70 158 136 77 66 150 125 162 131 18 10 34 3 125 -51 56 -35
160 -102 230 -150 216 -147 298 -177 334 -122 12 18 15 37 10 63 -5 32 -378
709 -494 898 -35 57 -38 67 -19 82 9 8 43 -7 127 -55 362 -205 619 -343 638
-343 12 0 31 9 42 20 34 34 26 92 -31 220 -71 160 -149 360 -149 382 0 21 -1
21 161 7 70 -7 137 -9 150 -6 13 3 79 53 146 111 122 105 122 105 151 90 121
-60 285 6 342 138 85 197 -115 412 -315 340z"/>
</g>
</svg>
