<?xml version="1.0" standalone="no"?>
<!DOCTYPE svg PUBLIC "-//W3C//DTD SVG 20010904//EN"
 "http://www.w3.org/TR/2001/REC-SVG-20010904/DTD/svg10.dtd">
<svg version="1.0" xmlns="http://www.w3.org/2000/svg"
 width="573.000000pt" height="638.000000pt" viewBox="0 0 573.000000 638.000000"
 preserveAspectRatio="xMidYMid meet">

<g transform="translate(0.000000,638.000000) scale(0.100000,-0.100000)"
fill="#000000" stroke="none">
<path d="M3030 5153 c-469 -37 -895 -325 -1108 -748 -92 -183 -135 -358 -136
-550 -1 -101 2 -125 18 -151 49 -82 168 -87 215 -10 21 34 31 77 60 247 27
150 53 235 107 339 110 212 312 406 530 506 230 107 498 124 733 47 286 -93
541 -312 675 -581 106 -211 133 -481 71 -697 -49 -172 -109 -276 -332 -577
-189 -255 -249 -364 -295 -538 -17 -63 -22 -120 -27 -350 -7 -264 -8 -277 -31
-325 -60 -124 -201 -207 -432 -254 -126 -26 -156 -129 -66 -227 56 -61 94 -71
211 -55 107 14 206 46 285 93 85 50 210 179 254 263 66 127 70 151 78 460 7
244 10 289 29 354 47 159 113 272 317 546 227 305 301 471 324 726 26 307 -55
625 -225 878 -277 415 -753 643 -1255 604z"/>
<path d="M3075 3792 c-69 -24 -110 -55 -139 -105 -37 -62 -48 -126 -35 -188
l11 -52 -83 -78 c-123 -114 -127 -116 -246 -101 -54 7 -129 19 -168 28 -204
43 -242 1 -164 -180 56 -129 116 -281 123 -310 6 -24 4 -28 -10 -22 -9 3 -150
82 -313 175 -163 93 -323 182 -355 200 -129 69 -246 21 -192 -79 7 -14 100
-180 206 -370 234 -418 305 -553 292 -558 -6 -2 -80 42 -166 98 -159 103 -198
120 -234 101 -24 -13 -416 -339 -420 -350 -1 -3 22 -31 53 -61 50 -49 56 -52
72 -39 10 9 81 70 158 136 77 66 150 125 162 131 18 10 34 3 125 -51 56 -35
160 -102 230 -150 216 -147 298 -177 334 -122 12 18 15 37 10 63 -5 32 -378
709 -494 898 -35 57 -38 67 -19 82 9 8 43 -7 127 -55 362 -205 619 -343 638
-343 12 0 31 9 42 20 33 33 26 91 -26 210 -75 169 -154 370 -154 391 0 23 -2
23 161 8 70 -7 137 -9 150 -6 13 3 79 53 146 111 122 105 122 105 151 90 121
-60 285 6 342 138 85 197 -115 412 -315 340z"/>
</g>
</svg>
