<svg width="372" height="488" viewBox="0 0 372 488" fill="none" xmlns="http://www.w3.org/2000/svg">
<g clip-path="url(#clip0_636_271)">
<rect width="372" height="488" rx="20" fill="white"/>
<path d="M255.122 372.8V340.7C254.922 274.9 324.022 249 323.822 183.1C324.022 121.4 268.322 74.8 215.622 74.9C171.922 74.8 142.122 102.9 130.922 117.5C97.1216 159.3 116.522 199.2 92.6215 199.2C85.8215 199.2 79.1215 195.4 79.0215 181.8C77.8215 116.4 131.822 47.1 216.822 47C285.322 47.1 352.722 101.8 352.722 185.5C352.722 263.1 284.822 279.3 284.822 347.5V376.6C284.822 406.5 258.122 440.7 214.322 440.9C204.719 440.944 194.828 430.019 197.122 420.5C199.422 413.3 206.022 411.6 215.122 410.6C233.855 405.916 254.67 395.973 255.122 372.8Z" fill="url(#paint0_linear_636_271)"/>
<path d="M58.8866 329.027L18.5125 362.827L30.1548 374.529C39.299 366.707 58.0296 350.682 59.7983 349.162C62.0092 347.261 63.2345 345.53 65.7831 345.6C76.1595 349.911 108.076 373.36 116.973 377.923C138.726 389.417 133.939 369.216 132.295 366.676C130.226 363.479 84.901 282.467 82.9161 279.764C79.3548 273.779 83.3256 273.268 84.4519 273.921C91.2098 277.836 150.13 310.865 155.649 313.471C167.42 317.035 165.958 302.574 164.466 299.786C161.397 293.717 143.452 251.135 144.846 250.389C153.525 250.709 156.575 250.989 158.166 251.151C168.492 252.205 176.222 252.91 178.47 251.225C179.913 250.144 203.776 230.151 204.509 228.504C196.856 216.403 200.023 221.667 196.131 215.021C191.545 218.85 181.93 226.994 178.46 230.429C171.587 237.693 167.884 236.805 165.828 236.65C162.787 236.664 140.33 232.9 138.19 232.252C123.87 228.617 121.926 235.037 121.855 237.586C121.798 243.176 125.12 250.723 127.358 254.906C137.39 277.943 139.082 284.856 138.673 285.434C114.856 271.757 67.0255 244.439 66.237 244.574C52.9848 240.118 44.5283 247.643 53.5622 259.426C66.2399 282.112 91.8769 327.942 93.003 329.779C101.618 344.536 102.129 348.507 101.307 348.648C91.6069 342.362 72.091 329.708 71.6292 329.381C65.2318 325.201 60.4686 327.403 58.8866 329.027Z" fill="url(#paint1_linear_636_271)"/>
<circle cx="216.217" cy="208.015" r="26" transform="rotate(-9.71766 216.217 208.015)" fill="url(#paint2_linear_636_271)"/>
</g>
<defs>
<linearGradient id="paint0_linear_636_271" x1="215.862" y1="47" x2="215.862" y2="440.9" gradientUnits="userSpaceOnUse">
<stop stop-color="#005AAA"/>
<stop offset="1" stop-color="#002444"/>
</linearGradient>
<linearGradient id="paint1_linear_636_271" x1="100.505" y1="231.397" x2="126.263" y2="381.811" gradientUnits="userSpaceOnUse">
<stop stop-color="#CA4D4D"/>
<stop offset="1" stop-color="#642626"/>
</linearGradient>
<linearGradient id="paint2_linear_636_271" x1="216.217" y1="182.015" x2="216.217" y2="234.015" gradientUnits="userSpaceOnUse">
<stop stop-color="#CA4D4D"/>
<stop offset="1" stop-color="#642626"/>
</linearGradient>
<clipPath id="clip0_636_271">
<rect width="372" height="488" rx="20" fill="white"/>
</clipPath>
</defs>
</svg>
