<svg width="220" height="64" viewBox="0 0 335 394" fill="none" xmlns="http://www.w3.org/2000/svg">
<g clip-path="url(#clip0_636_271)">
<path d="M237.122 325.8V293.7C236.922 227.9 306.022 202 305.822 136.1C306.022 74.4 250.322 27.8 197.622 27.9C153.922 27.8 124.122 55.9 112.922 70.5C79.1216 112.3 98.5215 152.2 74.6215 152.2C67.8215 152.2 61.1215 148.4 61.0215 134.8C59.8215 69.4 113.822 0.1 198.822 0C267.322 0.1 334.722 54.8 334.722 138.5C334.722 216.1 266.822 232.3 266.822 300.5V329.6C266.822 359.5 240.122 393.7 196.322 393.9C186.719 393.944 176.828 383.019 179.122 373.5C181.422 366.3 188.022 364.6 197.122 363.6C215.855 358.916 236.67 348.973 237.122 325.8Z" fill="url(#paint0_linear_636_271)"/>
<path d="M40.8866 282.026L0.512461 315.826L12.1548 327.528C21.299 319.706 40.0296 303.681 41.7983 302.161C44.0092 300.26 45.2345 298.529 47.7831 298.599C58.1595 302.91 90.0755 326.359 98.9735 330.923C120.726 342.416 115.939 322.215 114.295 319.675C112.226 316.478 66.901 235.467 64.9161 232.763C61.3548 226.778 65.3256 226.267 66.4519 226.92C73.2098 230.835 132.13 263.864 137.649 266.47C149.42 270.034 147.958 255.573 146.466 252.785C143.397 246.716 125.452 204.134 126.846 203.388C135.525 203.709 138.575 203.988 140.166 204.15C150.492 205.204 158.222 205.909 160.47 204.224C161.913 203.143 185.776 183.151 186.509 181.503C178.856 169.402 182.023 174.666 178.131 168.02C173.545 171.849 163.93 179.993 160.46 183.428C153.587 190.692 149.884 189.804 147.828 189.649C144.787 189.663 122.33 185.899 120.19 185.251C105.87 181.616 103.926 188.036 103.855 190.585C103.798 196.175 107.12 203.722 109.358 207.905C119.39 230.942 121.082 237.855 120.673 238.433C96.8564 224.756 49.0255 197.438 48.237 197.573C34.9848 193.117 26.5283 200.642 35.5622 212.425C48.2399 235.111 73.8769 280.941 75.003 282.778C83.6176 297.535 84.1286 301.506 83.3072 301.647C73.6069 295.361 54.091 282.707 53.6292 282.38C47.2318 278.2 42.4686 280.402 40.8866 282.026Z" fill="url(#paint1_linear_636_271)"/>
<circle cx="198.217" cy="161.014" r="26" transform="rotate(-9.71766 198.217 161.014)" fill="url(#paint2_linear_636_271)"/>
</g>
<defs>
<linearGradient id="paint0_linear_636_271" x1="197.862" y1="0" x2="197.862" y2="393.9" gradientUnits="userSpaceOnUse">
<stop stop-color="#005AAA"/>
<stop offset="1" stop-color="#002444"/>
</linearGradient>
<linearGradient id="paint1_linear_636_271" x1="82.5045" y1="184.396" x2="108.263" y2="334.81" gradientUnits="userSpaceOnUse">
<stop stop-color="#CA4D4D"/>
<stop offset="1" stop-color="#642626"/>
</linearGradient>
<linearGradient id="paint2_linear_636_271" x1="198.217" y1="135.014" x2="198.217" y2="187.014" gradientUnits="userSpaceOnUse">
<stop stop-color="#CA4D4D"/>
<stop offset="1" stop-color="#642626"/>
</linearGradient>
<clipPath id="clip0_636_271">
<rect width="335" height="394" rx="20" fill="white"/>
</clipPath>
</defs>
</svg>
