<svg width="37" height="44" viewBox="0 0 37 44" fill="none" xmlns="http://www.w3.org/2000/svg">
<g clip-path="url(#clip0_636_271)">
<path d="M26.1903 36.3838V32.799C26.1682 25.4508 33.8001 22.5584 33.7781 15.199C33.8001 8.30863 27.6482 3.10457 21.8276 3.11574C17.001 3.10457 13.7097 6.24264 12.4727 7.8731C8.73955 12.5411 10.8822 16.997 8.24254 16.997C7.49149 16.997 6.75149 16.5726 6.74045 15.0538C6.60791 7.75025 12.5721 0.0111675 21.9601 0C29.5258 0.0111675 36.97 6.1198 36.97 15.467C36.97 24.133 29.4706 25.9421 29.4706 33.5584V36.8081C29.4706 40.1472 26.5216 43.9665 21.684 43.9888C20.6235 43.9937 19.531 42.7737 19.7843 41.7107C20.0384 40.9066 20.7673 40.7168 21.7724 40.6051C23.8414 40.082 26.1404 38.9716 26.1903 36.3838Z" fill="url(#paint0_linear_636_271)"/>
<path d="M4.51667 31.4954L0.0574396 35.27L1.34331 36.5769C2.35327 35.7034 4.42201 33.9138 4.61737 33.744C4.86156 33.5318 4.99689 33.3384 5.27837 33.3463C6.42443 33.8277 9.94948 36.4464 10.9322 36.956C13.3347 38.2395 12.806 35.9836 12.6244 35.6999C12.3959 35.3429 7.3899 26.2959 7.17068 25.994C6.77734 25.3256 7.2159 25.2686 7.3403 25.3415C8.08669 25.7787 14.5943 29.4672 15.2039 29.7582C16.5039 30.1563 16.3425 28.5413 16.1777 28.23C15.8388 27.5522 13.8568 22.7969 14.0107 22.7135C14.9693 22.7494 15.3061 22.7806 15.4819 22.7987C16.6224 22.9163 17.4761 22.9951 17.7244 22.807C17.8837 22.6862 20.5194 20.4535 20.6003 20.2696C19.7551 18.9182 20.1049 19.506 19.675 18.7638C19.1685 19.1914 18.1065 20.1009 17.7232 20.4845C16.9642 21.2957 16.5552 21.1966 16.3282 21.1793C15.9923 21.1808 13.5119 20.7605 13.2755 20.6881C11.694 20.2821 11.4793 20.9991 11.4714 21.2838C11.4651 21.908 11.832 22.7509 12.0792 23.2179C13.1872 25.7906 13.374 26.5627 13.3289 26.6272C10.6984 25.0999 5.4156 22.0491 5.32851 22.0642C3.86483 21.5666 2.93083 22.4069 3.9286 23.7228C5.32883 26.2562 8.16038 31.3743 8.28475 31.5794C9.23622 33.2275 9.29265 33.6709 9.20193 33.6866C8.13056 32.9846 5.97507 31.5715 5.92407 31.535C5.21749 31.0682 4.6914 31.3141 4.51667 31.4954Z" fill="url(#paint1_linear_636_271)"/>
<ellipse cx="2.87256" cy="2.90265" rx="2.87256" ry="2.90265" transform="matrix(0.985338 -0.170615 0.16699 0.985959 18.5781 15.6094)" fill="url(#paint2_linear_636_271)"/>
</g>
<defs>
<linearGradient id="paint0_linear_636_271" x1="21.8541" y1="0" x2="21.8541" y2="43.9888" gradientUnits="userSpaceOnUse">
<stop stop-color="#005AAA"/>
<stop offset="1" stop-color="#002444"/>
</linearGradient>
<linearGradient id="paint1_linear_636_271" x1="9.11328" y1="20.5926" x2="12.02" y2="37.3794" gradientUnits="userSpaceOnUse">
<stop stop-color="#CA4D4D"/>
<stop offset="1" stop-color="#642626"/>
</linearGradient>
<linearGradient id="paint2_linear_636_271" x1="2.87256" y1="0" x2="2.87256" y2="5.8053" gradientUnits="userSpaceOnUse">
<stop stop-color="#CA4D4D"/>
<stop offset="1" stop-color="#642626"/>
</linearGradient>
<clipPath id="clip0_636_271">
<rect width="37" height="44" rx="18.5" fill="white"/>
</clipPath>
</defs>
</svg>
