<svg width="227" height="85" viewBox="0 0 227 85" fill="none" xmlns="http://www.w3.org/2000/svg">
<path d="M10 0L18.6603 15H1.33975L10 0Z" fill="#5DCA76"/>
<rect x="4" y="15" width="12" height="59" fill="#5DCA76"/>
<rect x="4" y="75" width="12" height="25" transform="rotate(-90 4 75)" fill="#5DCA76"/>
<rect x="37" y="23" width="12" height="62" fill="#F6C84B"/>
<rect x="24" y="33" width="12" height="25" transform="rotate(-90 24 33)" fill="#F6C84B"/>
<path d="M19.68 58C19.4 58 19.26 57.86 19.26 57.58V54.82C19.26 53.9 19.43 53.08 19.77 52.36C20.13 51.62 20.59 50.97 21.15 50.41C21.73 49.83 22.36 49.31 23.04 48.85C23.72 48.39 24.4 47.97 25.08 47.59C25.76 47.19 26.38 46.8 26.94 46.42C27.52 46.04 27.98 45.66 28.32 45.28C28.68 44.88 28.86 44.45 28.86 43.99V43.54C28.86 43.04 28.68 42.67 28.32 42.43C27.96 42.17 27.37 42.04 26.55 42.04C25.75 42.04 25.16 42.2 24.78 42.52C24.4 42.82 24.22 43.26 24.24 43.84C24.24 44.12 24.1 44.26 23.82 44.26H20.13C19.87 44.26 19.73 44.12 19.71 43.84C19.63 42.52 19.87 41.43 20.43 40.57C21.01 39.69 21.84 39.04 22.92 38.62C24.02 38.2 25.31 37.99 26.79 37.99C29.07 37.99 30.79 38.44 31.95 39.34C33.11 40.22 33.69 41.6 33.69 43.48C33.69 44.4 33.53 45.21 33.21 45.91C32.89 46.61 32.46 47.23 31.92 47.77C31.38 48.29 30.78 48.77 30.12 49.21C29.48 49.63 28.84 50.02 28.2 50.38C27.56 50.74 26.97 51.1 26.43 51.46C25.91 51.8 25.48 52.17 25.14 52.57C24.82 52.95 24.66 53.39 24.66 53.89H33.18C33.46 53.89 33.6 54.03 33.6 54.31V57.58C33.6 57.86 33.46 58 33.18 58H19.68Z" fill="#A45EB5"/>
<path d="M63.2139 57H52.4287V41.5957H55.5117V53.917H63.2139V57ZM68.7891 54.1855C68.9036 54.2214 69.0182 54.2464 69.1328 54.2607C69.2474 54.2679 69.362 54.2715 69.4766 54.2715C69.763 54.2715 70.0387 54.2321 70.3037 54.1533C70.5687 54.0745 70.8158 53.9635 71.0449 53.8203C71.2812 53.6699 71.4889 53.4909 71.668 53.2832C71.8542 53.0684 72.0046 52.832 72.1191 52.5742L74.2676 54.7334C73.9954 55.1201 73.6803 55.4674 73.3223 55.7754C72.9714 56.0833 72.5882 56.3447 72.1729 56.5596C71.7646 56.7744 71.3314 56.9355 70.873 57.043C70.4219 57.1576 69.9564 57.2148 69.4766 57.2148C68.6673 57.2148 67.9046 57.0645 67.1885 56.7637C66.4795 56.4629 65.8564 56.0439 65.3193 55.5068C64.7894 54.9697 64.3704 54.3324 64.0625 53.5947C63.7546 52.8499 63.6006 52.0335 63.6006 51.1455C63.6006 50.236 63.7546 49.4053 64.0625 48.6533C64.3704 47.9014 64.7894 47.2604 65.3193 46.7305C65.8564 46.2005 66.4795 45.7887 67.1885 45.4951C67.9046 45.2015 68.6673 45.0547 69.4766 45.0547C69.9564 45.0547 70.4255 45.112 70.8838 45.2266C71.3421 45.3411 71.7754 45.5059 72.1836 45.7207C72.599 45.9355 72.9857 46.2005 73.3438 46.5156C73.7018 46.8236 74.0169 47.1709 74.2891 47.5576L68.7891 54.1855ZM70.293 48.1377C70.1569 48.0876 70.0208 48.0553 69.8848 48.041C69.7559 48.0267 69.6198 48.0195 69.4766 48.0195C69.0755 48.0195 68.696 48.0947 68.3379 48.2451C67.987 48.3883 67.679 48.596 67.4141 48.8682C67.1562 49.1403 66.9521 49.4697 66.8018 49.8564C66.6514 50.236 66.5762 50.6657 66.5762 51.1455C66.5762 51.2529 66.5798 51.3747 66.5869 51.5107C66.6012 51.6468 66.6191 51.7865 66.6406 51.9297C66.6693 52.0658 66.7015 52.1982 66.7373 52.3271C66.7731 52.4561 66.8197 52.5706 66.877 52.6709L70.293 48.1377ZM86.8252 57H86.1162L84.9775 55.4209C84.6982 55.6715 84.401 55.9079 84.0859 56.1299C83.778 56.3447 83.4521 56.5345 83.1084 56.6992C82.7646 56.8568 82.4102 56.9821 82.0449 57.0752C81.6868 57.1683 81.3216 57.2148 80.9492 57.2148C80.14 57.2148 79.3773 57.0788 78.6611 56.8066C77.9521 56.5345 77.3291 56.1406 76.792 55.625C76.262 55.1022 75.8431 54.4648 75.5352 53.7129C75.2272 52.9609 75.0732 52.1051 75.0732 51.1455C75.0732 50.2503 75.2272 49.4303 75.5352 48.6855C75.8431 47.9336 76.262 47.2891 76.792 46.752C77.3291 46.2148 77.9521 45.7995 78.6611 45.5059C79.3773 45.2051 80.14 45.0547 80.9492 45.0547C81.3216 45.0547 81.6904 45.1012 82.0557 45.1943C82.4209 45.2874 82.7754 45.4163 83.1191 45.5811C83.4629 45.7458 83.7887 45.9391 84.0967 46.1611C84.4118 46.3831 84.7054 46.623 84.9775 46.8809L86.1162 45.5166H86.8252V57ZM83.8711 51.1455C83.8711 50.7445 83.7923 50.3577 83.6348 49.9854C83.4844 49.6058 83.2767 49.2728 83.0117 48.9863C82.7467 48.6927 82.4352 48.46 82.0771 48.2881C81.7262 48.109 81.3503 48.0195 80.9492 48.0195C80.5482 48.0195 80.1686 48.0876 79.8105 48.2236C79.4596 48.3597 79.1517 48.5602 78.8867 48.8252C78.6289 49.0902 78.4248 49.4196 78.2744 49.8135C78.124 50.2002 78.0488 50.6442 78.0488 51.1455C78.0488 51.6468 78.124 52.0944 78.2744 52.4883C78.4248 52.875 78.6289 53.2008 78.8867 53.4658C79.1517 53.7308 79.4596 53.9313 79.8105 54.0674C80.1686 54.2035 80.5482 54.2715 80.9492 54.2715C81.3503 54.2715 81.7262 54.1855 82.0771 54.0137C82.4352 53.8346 82.7467 53.6019 83.0117 53.3154C83.2767 53.0218 83.4844 52.6888 83.6348 52.3164C83.7923 51.9368 83.8711 51.5465 83.8711 51.1455ZM92.0029 57H89.0703V45.4951H89.7793L90.7461 46.8594C91.2188 46.4297 91.7559 46.1003 92.3574 45.8711C92.959 45.6348 93.582 45.5166 94.2266 45.5166H96.8154V48.4385H94.2266C93.9186 48.4385 93.6286 48.4958 93.3564 48.6104C93.0843 48.7249 92.848 48.8825 92.6475 49.083C92.4469 49.2835 92.2894 49.5199 92.1748 49.792C92.0602 50.0641 92.0029 50.3542 92.0029 50.6621V57ZM101.112 57H98.1797V45.4951H98.8887L99.8555 46.6123C100.328 46.1826 100.862 45.8532 101.456 45.624C102.058 45.3877 102.684 45.2695 103.336 45.2695C104.038 45.2695 104.7 45.4056 105.323 45.6777C105.946 45.9427 106.491 46.3115 106.956 46.7842C107.422 47.2497 107.787 47.7975 108.052 48.4277C108.324 49.0508 108.46 49.7168 108.46 50.4258V57H105.527V50.4258C105.527 50.125 105.47 49.8421 105.355 49.5771C105.241 49.305 105.083 49.0687 104.883 48.8682C104.682 48.6676 104.45 48.5101 104.185 48.3955C103.92 48.2809 103.637 48.2236 103.336 48.2236C103.028 48.2236 102.738 48.2809 102.466 48.3955C102.194 48.5101 101.957 48.6676 101.757 48.8682C101.556 49.0687 101.399 49.305 101.284 49.5771C101.17 49.8421 101.112 50.125 101.112 50.4258V57Z" fill="#5DCA76"/>
<path d="M121.168 46.2148C121.168 46.8522 121.046 47.4538 120.803 48.0195C120.559 48.5781 120.226 49.0687 119.804 49.4912C119.388 49.9066 118.901 50.236 118.343 50.4795C117.784 50.723 117.186 50.8447 116.549 50.8447H115.002C114.787 50.8447 114.587 50.8841 114.4 50.9629C114.214 51.0417 114.049 51.1527 113.906 51.2959C113.77 51.432 113.663 51.5931 113.584 51.7793C113.505 51.9655 113.466 52.166 113.466 52.3809V53.917H120.749V57H110.383V52.3809C110.383 51.7435 110.505 51.1455 110.748 50.5869C110.992 50.0212 111.321 49.5306 111.736 49.1152C112.159 48.6927 112.649 48.3633 113.208 48.127C113.767 47.8835 114.365 47.7617 115.002 47.7617H116.549C116.764 47.7617 116.964 47.7223 117.15 47.6436C117.337 47.5648 117.498 47.4574 117.634 47.3213C117.777 47.1781 117.888 47.0133 117.967 46.8271C118.046 46.6338 118.085 46.4297 118.085 46.2148C118.085 46 118.046 45.7995 117.967 45.6133C117.888 45.4271 117.777 45.266 117.634 45.1299C117.498 44.9867 117.337 44.8757 117.15 44.7969C116.964 44.7181 116.764 44.6787 116.549 44.6787H111.049V41.5957H116.549C117.186 41.5957 117.784 41.7174 118.343 41.9609C118.901 42.2044 119.388 42.5374 119.804 42.96C120.226 43.3753 120.559 43.8623 120.803 44.4209C121.046 44.9795 121.168 45.5775 121.168 46.2148Z" fill="#A45EB5"/>
<path d="M134.22 57H123.435V41.5957H126.518V53.917H134.22V57ZM146.358 57H145.649L144.511 55.4209C144.231 55.6715 143.934 55.9079 143.619 56.1299C143.311 56.3447 142.985 56.5345 142.642 56.6992C142.298 56.8568 141.943 56.9821 141.578 57.0752C141.22 57.1683 140.855 57.2148 140.482 57.2148C139.673 57.2148 138.91 57.0788 138.194 56.8066C137.485 56.5345 136.862 56.1406 136.325 55.625C135.795 55.1022 135.376 54.4648 135.068 53.7129C134.76 52.9609 134.606 52.1051 134.606 51.1455C134.606 50.2503 134.76 49.4303 135.068 48.6855C135.376 47.9336 135.795 47.2891 136.325 46.752C136.862 46.2148 137.485 45.7995 138.194 45.5059C138.91 45.2051 139.673 45.0547 140.482 45.0547C140.855 45.0547 141.224 45.1012 141.589 45.1943C141.954 45.2874 142.309 45.4163 142.652 45.5811C142.996 45.7458 143.322 45.9391 143.63 46.1611C143.945 46.3831 144.239 46.623 144.511 46.8809L145.649 45.5166H146.358V57ZM143.404 51.1455C143.404 50.7445 143.326 50.3577 143.168 49.9854C143.018 49.6058 142.81 49.2728 142.545 48.9863C142.28 48.6927 141.968 48.46 141.61 48.2881C141.259 48.109 140.883 48.0195 140.482 48.0195C140.081 48.0195 139.702 48.0876 139.344 48.2236C138.993 48.3597 138.685 48.5602 138.42 48.8252C138.162 49.0902 137.958 49.4196 137.808 49.8135C137.657 50.2002 137.582 50.6442 137.582 51.1455C137.582 51.6468 137.657 52.0944 137.808 52.4883C137.958 52.875 138.162 53.2008 138.42 53.4658C138.685 53.7308 138.993 53.9313 139.344 54.0674C139.702 54.2035 140.081 54.2715 140.482 54.2715C140.883 54.2715 141.259 54.1855 141.61 54.0137C141.968 53.8346 142.28 53.6019 142.545 53.3154C142.81 53.0218 143.018 52.6888 143.168 52.3164C143.326 51.9368 143.404 51.5465 143.404 51.1455ZM151.536 57H148.604V45.4951H149.312L150.279 46.6123C150.752 46.1826 151.285 45.8532 151.88 45.624C152.481 45.3877 153.108 45.2695 153.76 45.2695C154.462 45.2695 155.124 45.4056 155.747 45.6777C156.37 45.9427 156.914 46.3115 157.38 46.7842C157.845 47.2497 158.211 47.7975 158.476 48.4277C158.748 49.0508 158.884 49.7168 158.884 50.4258V57H155.951V50.4258C155.951 50.125 155.894 49.8421 155.779 49.5771C155.665 49.305 155.507 49.0687 155.307 48.8682C155.106 48.6676 154.873 48.5101 154.608 48.3955C154.343 48.2809 154.061 48.2236 153.76 48.2236C153.452 48.2236 153.162 48.2809 152.89 48.3955C152.618 48.5101 152.381 48.6676 152.181 48.8682C151.98 49.0687 151.823 49.305 151.708 49.5771C151.593 49.8421 151.536 50.125 151.536 50.4258V57ZM169.164 51.1455C169.164 50.7445 169.085 50.3577 168.928 49.9854C168.777 49.6058 168.57 49.2728 168.305 48.9863C168.04 48.6927 167.728 48.46 167.37 48.2881C167.019 48.109 166.643 48.0195 166.242 48.0195C165.841 48.0195 165.462 48.0876 165.104 48.2236C164.753 48.3597 164.445 48.5602 164.18 48.8252C163.922 49.0902 163.718 49.4196 163.567 49.8135C163.417 50.2002 163.342 50.6442 163.342 51.1455C163.342 51.6253 163.417 52.0586 163.567 52.4453C163.718 52.8249 163.922 53.1507 164.18 53.4229C164.445 53.695 164.753 53.9062 165.104 54.0566C165.462 54.1999 165.841 54.2715 166.242 54.2715C166.643 54.2715 167.019 54.1855 167.37 54.0137C167.728 53.8346 168.04 53.6019 168.305 53.3154C168.57 53.0218 168.777 52.6888 168.928 52.3164C169.085 51.9368 169.164 51.5465 169.164 51.1455ZM172.118 55.5498C172.118 56.359 171.964 57.1182 171.656 57.8271C171.348 58.5361 170.926 59.1556 170.389 59.6855C169.859 60.2155 169.236 60.6344 168.52 60.9424C167.811 61.2503 167.051 61.4043 166.242 61.4043L164.771 61.3828V58.4502L166.221 58.4717C166.679 58.4717 167.069 58.4108 167.392 58.2891C167.714 58.1745 167.986 58.0133 168.208 57.8057C168.43 57.6051 168.605 57.3724 168.734 57.1074C168.87 56.8424 168.978 56.5632 169.057 56.2695C168.942 56.4557 168.777 56.6097 168.562 56.7314C168.348 56.846 168.108 56.9391 167.843 57.0107C167.585 57.0895 167.313 57.1432 167.026 57.1719C166.747 57.2005 166.486 57.2148 166.242 57.2148C165.433 57.2148 164.67 57.0752 163.954 56.7959C163.245 56.5166 162.622 56.1191 162.085 55.6035C161.555 55.0807 161.136 54.4434 160.828 53.6914C160.52 52.9395 160.366 52.0908 160.366 51.1455C160.366 50.279 160.52 49.4733 160.828 48.7285C161.136 47.9837 161.555 47.3392 162.085 46.7949C162.622 46.2507 163.245 45.8245 163.954 45.5166C164.67 45.2087 165.433 45.0547 166.242 45.0547C166.615 45.0547 166.983 45.1012 167.349 45.1943C167.714 45.2874 168.068 45.4163 168.412 45.5811C168.756 45.7458 169.082 45.9391 169.39 46.1611C169.705 46.3831 169.998 46.623 170.271 46.8809L171.409 45.5166H172.118V55.5498ZM182.817 55.6572C182.581 55.8721 182.327 56.0762 182.055 56.2695C181.79 56.4557 181.51 56.6204 181.217 56.7637C180.923 56.8997 180.619 57.0072 180.304 57.0859C179.996 57.1719 179.681 57.2148 179.358 57.2148C178.649 57.2148 177.983 57.0895 177.36 56.8389C176.737 56.5882 176.189 56.2337 175.717 55.7754C175.251 55.3099 174.882 54.7477 174.61 54.0889C174.345 53.4229 174.213 52.6781 174.213 51.8545V45.4951H177.135V51.8545C177.135 52.2412 177.192 52.5885 177.307 52.8965C177.428 53.1973 177.59 53.4515 177.79 53.6592C177.991 53.8669 178.223 54.0244 178.488 54.1318C178.76 54.2393 179.05 54.293 179.358 54.293C179.659 54.293 179.942 54.2249 180.207 54.0889C180.479 53.9456 180.715 53.7594 180.916 53.5303C181.117 53.3011 181.274 53.0433 181.389 52.7568C181.503 52.4632 181.561 52.1624 181.561 51.8545V45.4951H184.493V57H183.784L182.817 55.6572ZM197.878 57H197.169L196.03 55.4209C195.751 55.6715 195.454 55.9079 195.139 56.1299C194.831 56.3447 194.505 56.5345 194.161 56.6992C193.817 56.8568 193.463 56.9821 193.098 57.0752C192.74 57.1683 192.374 57.2148 192.002 57.2148C191.193 57.2148 190.43 57.0788 189.714 56.8066C189.005 56.5345 188.382 56.1406 187.845 55.625C187.315 55.1022 186.896 54.4648 186.588 53.7129C186.28 52.9609 186.126 52.1051 186.126 51.1455C186.126 50.2503 186.28 49.4303 186.588 48.6855C186.896 47.9336 187.315 47.2891 187.845 46.752C188.382 46.2148 189.005 45.7995 189.714 45.5059C190.43 45.2051 191.193 45.0547 192.002 45.0547C192.374 45.0547 192.743 45.1012 193.108 45.1943C193.474 45.2874 193.828 45.4163 194.172 45.5811C194.516 45.7458 194.841 45.9391 195.149 46.1611C195.465 46.3831 195.758 46.623 196.03 46.8809L197.169 45.5166H197.878V57ZM194.924 51.1455C194.924 50.7445 194.845 50.3577 194.688 49.9854C194.537 49.6058 194.329 49.2728 194.064 48.9863C193.799 48.6927 193.488 48.46 193.13 48.2881C192.779 48.109 192.403 48.0195 192.002 48.0195C191.601 48.0195 191.221 48.0876 190.863 48.2236C190.512 48.3597 190.204 48.5602 189.939 48.8252C189.682 49.0902 189.478 49.4196 189.327 49.8135C189.177 50.2002 189.102 50.6442 189.102 51.1455C189.102 51.6468 189.177 52.0944 189.327 52.4883C189.478 52.875 189.682 53.2008 189.939 53.4658C190.204 53.7308 190.512 53.9313 190.863 54.0674C191.221 54.2035 191.601 54.2715 192.002 54.2715C192.403 54.2715 192.779 54.1855 193.13 54.0137C193.488 53.8346 193.799 53.6019 194.064 53.3154C194.329 53.0218 194.537 52.6888 194.688 52.3164C194.845 51.9368 194.924 51.5465 194.924 51.1455ZM208.309 51.1455C208.309 50.7445 208.23 50.3577 208.072 49.9854C207.922 49.6058 207.714 49.2728 207.449 48.9863C207.184 48.6927 206.873 48.46 206.515 48.2881C206.164 48.109 205.788 48.0195 205.387 48.0195C204.986 48.0195 204.606 48.0876 204.248 48.2236C203.897 48.3597 203.589 48.5602 203.324 48.8252C203.066 49.0902 202.862 49.4196 202.712 49.8135C202.562 50.2002 202.486 50.6442 202.486 51.1455C202.486 51.6253 202.562 52.0586 202.712 52.4453C202.862 52.8249 203.066 53.1507 203.324 53.4229C203.589 53.695 203.897 53.9062 204.248 54.0566C204.606 54.1999 204.986 54.2715 205.387 54.2715C205.788 54.2715 206.164 54.1855 206.515 54.0137C206.873 53.8346 207.184 53.6019 207.449 53.3154C207.714 53.0218 207.922 52.6888 208.072 52.3164C208.23 51.9368 208.309 51.5465 208.309 51.1455ZM211.263 55.5498C211.263 56.359 211.109 57.1182 210.801 57.8271C210.493 58.5361 210.07 59.1556 209.533 59.6855C209.003 60.2155 208.38 60.6344 207.664 60.9424C206.955 61.2503 206.196 61.4043 205.387 61.4043L203.915 61.3828V58.4502L205.365 58.4717C205.824 58.4717 206.214 58.4108 206.536 58.2891C206.858 58.1745 207.131 58.0133 207.353 57.8057C207.575 57.6051 207.75 57.3724 207.879 57.1074C208.015 56.8424 208.122 56.5632 208.201 56.2695C208.087 56.4557 207.922 56.6097 207.707 56.7314C207.492 56.846 207.252 56.9391 206.987 57.0107C206.729 57.0895 206.457 57.1432 206.171 57.1719C205.892 57.2005 205.63 57.2148 205.387 57.2148C204.577 57.2148 203.815 57.0752 203.099 56.7959C202.39 56.5166 201.767 56.1191 201.229 55.6035C200.7 55.0807 200.281 54.4434 199.973 53.6914C199.665 52.9395 199.511 52.0908 199.511 51.1455C199.511 50.279 199.665 49.4733 199.973 48.7285C200.281 47.9837 200.7 47.3392 201.229 46.7949C201.767 46.2507 202.39 45.8245 203.099 45.5166C203.815 45.2087 204.577 45.0547 205.387 45.0547C205.759 45.0547 206.128 45.1012 206.493 45.1943C206.858 45.2874 207.213 45.4163 207.557 45.5811C207.9 45.7458 208.226 45.9391 208.534 46.1611C208.849 46.3831 209.143 46.623 209.415 46.8809L210.554 45.5166H211.263V55.5498ZM218.084 54.1855C218.199 54.2214 218.313 54.2464 218.428 54.2607C218.542 54.2679 218.657 54.2715 218.771 54.2715C219.058 54.2715 219.334 54.2321 219.599 54.1533C219.864 54.0745 220.111 53.9635 220.34 53.8203C220.576 53.6699 220.784 53.4909 220.963 53.2832C221.149 53.0684 221.299 52.832 221.414 52.5742L223.562 54.7334C223.29 55.1201 222.975 55.4674 222.617 55.7754C222.266 56.0833 221.883 56.3447 221.468 56.5596C221.06 56.7744 220.626 56.9355 220.168 57.043C219.717 57.1576 219.251 57.2148 218.771 57.2148C217.962 57.2148 217.2 57.0645 216.483 56.7637C215.774 56.4629 215.151 56.0439 214.614 55.5068C214.084 54.9697 213.665 54.3324 213.357 53.5947C213.049 52.8499 212.896 52.0335 212.896 51.1455C212.896 50.236 213.049 49.4053 213.357 48.6533C213.665 47.9014 214.084 47.2604 214.614 46.7305C215.151 46.2005 215.774 45.7887 216.483 45.4951C217.2 45.2015 217.962 45.0547 218.771 45.0547C219.251 45.0547 219.72 45.112 220.179 45.2266C220.637 45.3411 221.07 45.5059 221.479 45.7207C221.894 45.9355 222.281 46.2005 222.639 46.5156C222.997 46.8236 223.312 47.1709 223.584 47.5576L218.084 54.1855ZM219.588 48.1377C219.452 48.0876 219.316 48.0553 219.18 48.041C219.051 48.0267 218.915 48.0195 218.771 48.0195C218.37 48.0195 217.991 48.0947 217.633 48.2451C217.282 48.3883 216.974 48.596 216.709 48.8682C216.451 49.1403 216.247 49.4697 216.097 49.8564C215.946 50.236 215.871 50.6657 215.871 51.1455C215.871 51.2529 215.875 51.3747 215.882 51.5107C215.896 51.6468 215.914 51.7865 215.936 51.9297C215.964 52.0658 215.996 52.1982 216.032 52.3271C216.068 52.4561 216.115 52.5706 216.172 52.6709L219.588 48.1377Z" fill="#F6C84B"/>
</svg>
