<svg width="196" height="40" viewBox="0 0 196 40" fill="none" xmlns="http://www.w3.org/2000/svg">
<g clip-path="url(#clip0_641_271)">
<path d="M13.3515 26.3344H18.7026C18.9829 26.3344 19.1231 26.5128 19.1231 26.8695V33.5966C19.1231 34.3102 18.7664 34.6669 18.0529 34.6669H8.803V31.0357H12.3577C12.7654 31.0357 12.9693 30.9975 12.9693 30.9211C12.9947 30.8191 13.0075 30.7044 13.0075 30.5771V26.7548C13.0075 26.551 13.033 26.4363 13.0839 26.4108C13.1349 26.3599 13.2241 26.3344 13.3515 26.3344ZM7.46521 34.6669H3.45185C2.58547 34.6669 2.01213 34.5267 1.73183 34.2464C1.47701 33.9662 1.34961 33.38 1.34961 32.4882V9.21067C1.34961 8.31881 1.47701 7.73273 1.73183 7.45243C2.01213 7.17213 2.58547 7.03198 3.45185 7.03198H7.46521V34.6669Z" fill="#A855F7"/>
</g>
<g clip-path="url(#clip1_641_271)">
<path d="M20.5621 17.2156H21.3812C22 17.2156 22.3094 17.5687 22.3094 18.2749V21.0487C22.3094 21.704 21.9891 22.0316 21.3484 22.0316H19.8413V20.9941H20.2672C20.3983 20.9941 20.4784 20.9723 20.5075 20.9286C20.5439 20.8777 20.5621 20.7939 20.5621 20.6774V17.2156ZM19.4045 22.0316H19.0987C18.9677 22.0316 18.884 22.0571 18.8476 22.1081C18.8184 22.1517 18.8039 22.2318 18.8039 22.3483V25.1113H17.8756C17.5189 25.1113 17.2932 25.053 17.1985 24.9365C17.1039 24.82 17.0566 24.5288 17.0566 24.0629V21.7586C17.0566 21.4382 17.1112 21.2308 17.2204 21.1361C17.3296 21.0415 17.5589 20.9941 17.9084 20.9941H19.4045V22.0316ZM22.0364 23.8554C22.2184 23.8554 22.3094 23.9573 22.3094 24.1612V25.1113H19.2516L19.2407 23.8554H22.0364ZM20.1253 18.253H19.0878C18.9349 18.253 18.8403 18.2785 18.8039 18.3295C18.7675 18.3732 18.7493 18.4569 18.7493 18.5807V19.7929H17.548C17.2786 19.7929 17.1184 19.771 17.0675 19.7273C17.0238 19.6837 17.002 19.549 17.002 19.3233V18.3841C17.002 17.9837 17.0602 17.6888 17.1767 17.4995C17.3005 17.3102 17.5662 17.2156 17.9739 17.2156H20.1253V18.253Z" fill="#A855F7"/>
</g>
<path d="M22.1524 15.6976H16.8013C16.521 15.6976 16.3808 15.5192 16.3808 15.1625V8.43534C16.3808 7.72181 16.7375 7.36511 17.4511 7.36511H26.7009V10.9963H23.1462C22.7385 10.9963 22.5346 11.0345 22.5346 11.1109C22.5092 11.2129 22.4964 11.3276 22.4964 11.4549V15.2772C22.4964 15.481 22.4709 15.5957 22.42 15.6212C22.369 15.6721 22.2798 15.6976 22.1524 15.6976ZM28.0387 7.36511H32.0521C32.9184 7.36511 33.4918 7.50531 33.7721 7.78556C34.0269 8.06582 34.1543 8.65198 34.1543 9.5438V32.8213C34.1543 33.7132 34.0269 34.2993 33.7721 34.5796C33.4918 34.8599 32.9184 35 32.0521 35H28.0387V7.36511Z" fill="#A855F7"/>
<path d="M49.1035 27H39.2988V12.9961H42.1016V24.1973H49.1035V27ZM54.1719 24.4414C54.276 24.474 54.3802 24.4967 54.4844 24.5098C54.5885 24.5163 54.6927 24.5195 54.7969 24.5195C55.0573 24.5195 55.3079 24.4837 55.5488 24.4121C55.7897 24.3405 56.0143 24.2396 56.2227 24.1094C56.4375 23.9727 56.6263 23.8099 56.7891 23.6211C56.9583 23.4258 57.0951 23.2109 57.1992 22.9766L59.1523 24.9395C58.9049 25.291 58.6185 25.6068 58.293 25.8867C57.974 26.1667 57.6257 26.4043 57.248 26.5996C56.877 26.7949 56.4831 26.9414 56.0664 27.0391C55.6562 27.1432 55.2331 27.1953 54.7969 27.1953C54.0612 27.1953 53.3678 27.0586 52.7168 26.7852C52.0723 26.5117 51.5059 26.1309 51.0176 25.6426C50.5358 25.1543 50.1549 24.5749 49.875 23.9043C49.5951 23.2272 49.4551 22.485 49.4551 21.6777C49.4551 20.8509 49.5951 20.0957 49.875 19.4121C50.1549 18.7285 50.5358 18.1458 51.0176 17.6641C51.5059 17.1823 52.0723 16.8079 52.7168 16.541C53.3678 16.2741 54.0612 16.1406 54.7969 16.1406C55.2331 16.1406 55.6595 16.1927 56.0762 16.2969C56.4928 16.401 56.8867 16.5508 57.2578 16.7461C57.6354 16.9414 57.987 17.1823 58.3125 17.4688C58.638 17.7487 58.9245 18.0645 59.1719 18.416L54.1719 24.4414ZM55.5391 18.9434C55.4154 18.8978 55.2917 18.8685 55.168 18.8555C55.0508 18.8424 54.9271 18.8359 54.7969 18.8359C54.4323 18.8359 54.0872 18.9043 53.7617 19.041C53.4427 19.1712 53.1628 19.36 52.9219 19.6074C52.6875 19.8548 52.502 20.1543 52.3652 20.5059C52.2285 20.8509 52.1602 21.2415 52.1602 21.6777C52.1602 21.7754 52.1634 21.8861 52.1699 22.0098C52.1829 22.1335 52.1992 22.2604 52.2188 22.3906C52.2448 22.5143 52.2741 22.6348 52.3066 22.752C52.3392 22.8691 52.3815 22.9733 52.4336 23.0645L55.5391 18.9434ZM70.5684 27H69.9238L68.8887 25.5645C68.6348 25.7923 68.3646 26.0072 68.0781 26.209C67.7982 26.4043 67.502 26.5768 67.1895 26.7266C66.877 26.8698 66.5547 26.9837 66.2227 27.0684C65.8971 27.153 65.5651 27.1953 65.2266 27.1953C64.4909 27.1953 63.7975 27.0716 63.1465 26.8242C62.502 26.5768 61.9355 26.2188 61.4473 25.75C60.9655 25.2747 60.5846 24.6953 60.3047 24.0117C60.0247 23.3281 59.8848 22.5501 59.8848 21.6777C59.8848 20.8639 60.0247 20.1185 60.3047 19.4414C60.5846 18.7578 60.9655 18.1719 61.4473 17.6836C61.9355 17.1953 62.502 16.8177 63.1465 16.5508C63.7975 16.2773 64.4909 16.1406 65.2266 16.1406C65.5651 16.1406 65.9004 16.1829 66.2324 16.2676C66.5645 16.3522 66.8867 16.4694 67.1992 16.6191C67.5117 16.7689 67.8079 16.9447 68.0879 17.1465C68.3743 17.3483 68.6413 17.5664 68.8887 17.8008L69.9238 16.5605H70.5684V27ZM67.8828 21.6777C67.8828 21.3132 67.8112 20.9616 67.668 20.623C67.5312 20.278 67.3424 19.9753 67.1016 19.7148C66.8607 19.4479 66.5775 19.2363 66.252 19.0801C65.9329 18.9173 65.5911 18.8359 65.2266 18.8359C64.862 18.8359 64.5169 18.8978 64.1914 19.0215C63.8724 19.1452 63.5924 19.3275 63.3516 19.5684C63.1172 19.8092 62.9316 20.1087 62.7949 20.4668C62.6582 20.8184 62.5898 21.222 62.5898 21.6777C62.5898 22.1335 62.6582 22.5404 62.7949 22.8984C62.9316 23.25 63.1172 23.5462 63.3516 23.7871C63.5924 24.028 63.8724 24.2103 64.1914 24.334C64.5169 24.4577 64.862 24.5195 65.2266 24.5195C65.5911 24.5195 65.9329 24.4414 66.252 24.2852C66.5775 24.1224 66.8607 23.9108 67.1016 23.6504C67.3424 23.3835 67.5312 23.0807 67.668 22.7422C67.8112 22.3971 67.8828 22.0423 67.8828 21.6777ZM75.2754 27H72.6094V16.541H73.2539L74.1328 17.7812C74.5625 17.3906 75.0508 17.0911 75.5977 16.8828C76.1445 16.668 76.7109 16.5605 77.2969 16.5605H79.6504V19.2168H77.2969C77.0169 19.2168 76.7533 19.2689 76.5059 19.373C76.2585 19.4772 76.0436 19.6204 75.8613 19.8027C75.679 19.985 75.5358 20.1999 75.4316 20.4473C75.3275 20.6947 75.2754 20.9583 75.2754 21.2383V27ZM83.5566 27H80.8906V16.541H81.5352L82.4141 17.5566C82.8438 17.166 83.3288 16.8665 83.8691 16.6582C84.416 16.4434 84.9857 16.3359 85.5781 16.3359C86.2161 16.3359 86.8184 16.4596 87.3848 16.707C87.9512 16.9479 88.446 17.2832 88.8691 17.7129C89.2923 18.1361 89.6243 18.6341 89.8652 19.207C90.1126 19.7734 90.2363 20.3789 90.2363 21.0234V27H87.5703V21.0234C87.5703 20.75 87.5182 20.4928 87.4141 20.252C87.3099 20.0046 87.1667 19.7897 86.9844 19.6074C86.8021 19.4251 86.5905 19.2819 86.3496 19.1777C86.1087 19.0736 85.8516 19.0215 85.5781 19.0215C85.2982 19.0215 85.0345 19.0736 84.7871 19.1777C84.5397 19.2819 84.3249 19.4251 84.1426 19.6074C83.9603 19.7897 83.8171 20.0046 83.7129 20.252C83.6087 20.4928 83.5566 20.75 83.5566 21.0234V27ZM101.789 17.1953C101.789 17.7747 101.678 18.3216 101.457 18.8359C101.236 19.3438 100.933 19.7897 100.549 20.1738C100.171 20.5514 99.7285 20.8509 99.2207 21.0723C98.7129 21.2936 98.1693 21.4043 97.5898 21.4043H96.1836C95.9883 21.4043 95.806 21.4401 95.6367 21.5117C95.4674 21.5833 95.3177 21.6842 95.1875 21.8145C95.0638 21.9382 94.9661 22.0846 94.8945 22.2539C94.8229 22.4232 94.7871 22.6055 94.7871 22.8008V24.1973H101.408V27H91.9844V22.8008C91.9844 22.2214 92.0951 21.6777 92.3164 21.1699C92.5378 20.6556 92.8372 20.2096 93.2148 19.832C93.599 19.4479 94.0449 19.1484 94.5527 18.9336C95.0605 18.7122 95.6042 18.6016 96.1836 18.6016H97.5898C97.7852 18.6016 97.9674 18.5658 98.1367 18.4941C98.306 18.4225 98.4525 18.3249 98.5762 18.2012C98.7064 18.071 98.8073 17.9212 98.8789 17.752C98.9505 17.5762 98.9863 17.3906 98.9863 17.1953C98.9863 17 98.9505 16.8177 98.8789 16.6484C98.8073 16.4792 98.7064 16.3327 98.5762 16.209C98.4525 16.0788 98.306 15.9779 98.1367 15.9062C97.9674 15.8346 97.7852 15.7988 97.5898 15.7988H92.5898V12.9961H97.5898C98.1693 12.9961 98.7129 13.1068 99.2207 13.3281C99.7285 13.5495 100.171 13.8522 100.549 14.2363C100.933 14.6139 101.236 15.0566 101.457 15.5645C101.678 16.0723 101.789 16.6159 101.789 17.1953Z" fill="white"/>
<path d="M113.654 27H103.85V12.9961H106.652V24.1973H113.654V27ZM124.689 27H124.045L123.01 25.5645C122.756 25.7923 122.486 26.0072 122.199 26.209C121.919 26.4043 121.623 26.5768 121.311 26.7266C120.998 26.8698 120.676 26.9837 120.344 27.0684C120.018 27.153 119.686 27.1953 119.348 27.1953C118.612 27.1953 117.919 27.0716 117.268 26.8242C116.623 26.5768 116.057 26.2188 115.568 25.75C115.087 25.2747 114.706 24.6953 114.426 24.0117C114.146 23.3281 114.006 22.5501 114.006 21.6777C114.006 20.8639 114.146 20.1185 114.426 19.4414C114.706 18.7578 115.087 18.1719 115.568 17.6836C116.057 17.1953 116.623 16.8177 117.268 16.5508C117.919 16.2773 118.612 16.1406 119.348 16.1406C119.686 16.1406 120.021 16.1829 120.354 16.2676C120.686 16.3522 121.008 16.4694 121.32 16.6191C121.633 16.7689 121.929 16.9447 122.209 17.1465C122.495 17.3483 122.762 17.5664 123.01 17.8008L124.045 16.5605H124.689V27ZM122.004 21.6777C122.004 21.3132 121.932 20.9616 121.789 20.623C121.652 20.278 121.464 19.9753 121.223 19.7148C120.982 19.4479 120.699 19.2363 120.373 19.0801C120.054 18.9173 119.712 18.8359 119.348 18.8359C118.983 18.8359 118.638 18.8978 118.312 19.0215C117.993 19.1452 117.714 19.3275 117.473 19.5684C117.238 19.8092 117.053 20.1087 116.916 20.4668C116.779 20.8184 116.711 21.222 116.711 21.6777C116.711 22.1335 116.779 22.5404 116.916 22.8984C117.053 23.25 117.238 23.5462 117.473 23.7871C117.714 24.028 117.993 24.2103 118.312 24.334C118.638 24.4577 118.983 24.5195 119.348 24.5195C119.712 24.5195 120.054 24.4414 120.373 24.2852C120.699 24.1224 120.982 23.9108 121.223 23.6504C121.464 23.3835 121.652 23.0807 121.789 22.7422C121.932 22.3971 122.004 22.0423 122.004 21.6777ZM129.396 27H126.73V16.541H127.375L128.254 17.5566C128.684 17.166 129.169 16.8665 129.709 16.6582C130.256 16.4434 130.826 16.3359 131.418 16.3359C132.056 16.3359 132.658 16.4596 133.225 16.707C133.791 16.9479 134.286 17.2832 134.709 17.7129C135.132 18.1361 135.464 18.6341 135.705 19.207C135.952 19.7734 136.076 20.3789 136.076 21.0234V27H133.41V21.0234C133.41 20.75 133.358 20.4928 133.254 20.252C133.15 20.0046 133.007 19.7897 132.824 19.6074C132.642 19.4251 132.43 19.2819 132.189 19.1777C131.949 19.0736 131.691 19.0215 131.418 19.0215C131.138 19.0215 130.874 19.0736 130.627 19.1777C130.38 19.2819 130.165 19.4251 129.982 19.6074C129.8 19.7897 129.657 20.0046 129.553 20.252C129.449 20.4928 129.396 20.75 129.396 21.0234V27ZM145.422 21.6777C145.422 21.3132 145.35 20.9616 145.207 20.623C145.07 20.278 144.882 19.9753 144.641 19.7148C144.4 19.4479 144.117 19.2363 143.791 19.0801C143.472 18.9173 143.13 18.8359 142.766 18.8359C142.401 18.8359 142.056 18.8978 141.73 19.0215C141.411 19.1452 141.132 19.3275 140.891 19.5684C140.656 19.8092 140.471 20.1087 140.334 20.4668C140.197 20.8184 140.129 21.222 140.129 21.6777C140.129 22.1139 140.197 22.5078 140.334 22.8594C140.471 23.2044 140.656 23.5007 140.891 23.748C141.132 23.9954 141.411 24.1875 141.73 24.3242C142.056 24.4544 142.401 24.5195 142.766 24.5195C143.13 24.5195 143.472 24.4414 143.791 24.2852C144.117 24.1224 144.4 23.9108 144.641 23.6504C144.882 23.3835 145.07 23.0807 145.207 22.7422C145.35 22.3971 145.422 22.0423 145.422 21.6777ZM148.107 25.6816C148.107 26.4173 147.967 27.1074 147.688 27.752C147.408 28.3965 147.023 28.9596 146.535 29.4414C146.053 29.9232 145.487 30.304 144.836 30.584C144.191 30.8639 143.501 31.0039 142.766 31.0039L141.428 30.9844V28.3184L142.746 28.3379C143.163 28.3379 143.518 28.2826 143.811 28.1719C144.104 28.0677 144.351 27.9212 144.553 27.7324C144.755 27.5501 144.914 27.3385 145.031 27.0977C145.155 26.8568 145.253 26.6029 145.324 26.3359C145.22 26.5052 145.07 26.6452 144.875 26.7559C144.68 26.86 144.462 26.9447 144.221 27.0098C143.986 27.0814 143.739 27.1302 143.479 27.1562C143.225 27.1823 142.987 27.1953 142.766 27.1953C142.03 27.1953 141.337 27.0684 140.686 26.8145C140.041 26.5605 139.475 26.1992 138.986 25.7305C138.505 25.2552 138.124 24.6758 137.844 23.9922C137.564 23.3086 137.424 22.5371 137.424 21.6777C137.424 20.89 137.564 20.1576 137.844 19.4805C138.124 18.8034 138.505 18.2174 138.986 17.7227C139.475 17.2279 140.041 16.8405 140.686 16.5605C141.337 16.2806 142.03 16.1406 142.766 16.1406C143.104 16.1406 143.439 16.1829 143.771 16.2676C144.104 16.3522 144.426 16.4694 144.738 16.6191C145.051 16.7689 145.347 16.9447 145.627 17.1465C145.913 17.3483 146.18 17.5664 146.428 17.8008L147.463 16.5605H148.107V25.6816ZM157.834 25.7793C157.619 25.9746 157.388 26.1602 157.141 26.3359C156.9 26.5052 156.646 26.6549 156.379 26.7852C156.112 26.9089 155.835 27.0065 155.549 27.0781C155.269 27.1562 154.982 27.1953 154.689 27.1953C154.045 27.1953 153.439 27.0814 152.873 26.8535C152.307 26.6257 151.809 26.3034 151.379 25.8867C150.956 25.4635 150.62 24.9525 150.373 24.3535C150.132 23.748 150.012 23.071 150.012 22.3223V16.541H152.668V22.3223C152.668 22.6738 152.72 22.9896 152.824 23.2695C152.935 23.543 153.081 23.7741 153.264 23.9629C153.446 24.1517 153.658 24.2949 153.898 24.3926C154.146 24.4902 154.41 24.5391 154.689 24.5391C154.963 24.5391 155.22 24.4772 155.461 24.3535C155.708 24.2233 155.923 24.054 156.105 23.8457C156.288 23.6374 156.431 23.403 156.535 23.1426C156.639 22.8757 156.691 22.6022 156.691 22.3223V16.541H159.357V27H158.713L157.834 25.7793ZM171.525 27H170.881L169.846 25.5645C169.592 25.7923 169.322 26.0072 169.035 26.209C168.755 26.4043 168.459 26.5768 168.146 26.7266C167.834 26.8698 167.512 26.9837 167.18 27.0684C166.854 27.153 166.522 27.1953 166.184 27.1953C165.448 27.1953 164.755 27.0716 164.104 26.8242C163.459 26.5768 162.893 26.2188 162.404 25.75C161.923 25.2747 161.542 24.6953 161.262 24.0117C160.982 23.3281 160.842 22.5501 160.842 21.6777C160.842 20.8639 160.982 20.1185 161.262 19.4414C161.542 18.7578 161.923 18.1719 162.404 17.6836C162.893 17.1953 163.459 16.8177 164.104 16.5508C164.755 16.2773 165.448 16.1406 166.184 16.1406C166.522 16.1406 166.857 16.1829 167.189 16.2676C167.521 16.3522 167.844 16.4694 168.156 16.6191C168.469 16.7689 168.765 16.9447 169.045 17.1465C169.331 17.3483 169.598 17.5664 169.846 17.8008L170.881 16.5605H171.525V27ZM168.84 21.6777C168.84 21.3132 168.768 20.9616 168.625 20.623C168.488 20.278 168.299 19.9753 168.059 19.7148C167.818 19.4479 167.535 19.2363 167.209 19.0801C166.89 18.9173 166.548 18.8359 166.184 18.8359C165.819 18.8359 165.474 18.8978 165.148 19.0215C164.829 19.1452 164.549 19.3275 164.309 19.5684C164.074 19.8092 163.889 20.1087 163.752 20.4668C163.615 20.8184 163.547 21.222 163.547 21.6777C163.547 22.1335 163.615 22.5404 163.752 22.8984C163.889 23.25 164.074 23.5462 164.309 23.7871C164.549 24.028 164.829 24.2103 165.148 24.334C165.474 24.4577 165.819 24.5195 166.184 24.5195C166.548 24.5195 166.89 24.4414 167.209 24.2852C167.535 24.1224 167.818 23.9108 168.059 23.6504C168.299 23.3835 168.488 23.0807 168.625 22.7422C168.768 22.3971 168.84 22.0423 168.84 21.6777ZM181.008 21.6777C181.008 21.3132 180.936 20.9616 180.793 20.623C180.656 20.278 180.467 19.9753 180.227 19.7148C179.986 19.4479 179.702 19.2363 179.377 19.0801C179.058 18.9173 178.716 18.8359 178.352 18.8359C177.987 18.8359 177.642 18.8978 177.316 19.0215C176.997 19.1452 176.717 19.3275 176.477 19.5684C176.242 19.8092 176.057 20.1087 175.92 20.4668C175.783 20.8184 175.715 21.222 175.715 21.6777C175.715 22.1139 175.783 22.5078 175.92 22.8594C176.057 23.2044 176.242 23.5007 176.477 23.748C176.717 23.9954 176.997 24.1875 177.316 24.3242C177.642 24.4544 177.987 24.5195 178.352 24.5195C178.716 24.5195 179.058 24.4414 179.377 24.2852C179.702 24.1224 179.986 23.9108 180.227 23.6504C180.467 23.3835 180.656 23.0807 180.793 22.7422C180.936 22.3971 181.008 22.0423 181.008 21.6777ZM183.693 25.6816C183.693 26.4173 183.553 27.1074 183.273 27.752C182.993 28.3965 182.609 28.9596 182.121 29.4414C181.639 29.9232 181.073 30.304 180.422 30.584C179.777 30.8639 179.087 31.0039 178.352 31.0039L177.014 30.9844V28.3184L178.332 28.3379C178.749 28.3379 179.104 28.2826 179.396 28.1719C179.689 28.0677 179.937 27.9212 180.139 27.7324C180.34 27.5501 180.5 27.3385 180.617 27.0977C180.741 26.8568 180.839 26.6029 180.91 26.3359C180.806 26.5052 180.656 26.6452 180.461 26.7559C180.266 26.86 180.048 26.9447 179.807 27.0098C179.572 27.0814 179.325 27.1302 179.064 27.1562C178.811 27.1823 178.573 27.1953 178.352 27.1953C177.616 27.1953 176.923 27.0684 176.271 26.8145C175.627 26.5605 175.061 26.1992 174.572 25.7305C174.09 25.2552 173.71 24.6758 173.43 23.9922C173.15 23.3086 173.01 22.5371 173.01 21.6777C173.01 20.89 173.15 20.1576 173.43 19.4805C173.71 18.8034 174.09 18.2174 174.572 17.7227C175.061 17.2279 175.627 16.8405 176.271 16.5605C176.923 16.2806 177.616 16.1406 178.352 16.1406C178.69 16.1406 179.025 16.1829 179.357 16.2676C179.689 16.3522 180.012 16.4694 180.324 16.6191C180.637 16.7689 180.933 16.9447 181.213 17.1465C181.499 17.3483 181.766 17.5664 182.014 17.8008L183.049 16.5605H183.693V25.6816ZM189.895 24.4414C189.999 24.474 190.103 24.4967 190.207 24.5098C190.311 24.5163 190.415 24.5195 190.52 24.5195C190.78 24.5195 191.031 24.4837 191.271 24.4121C191.512 24.3405 191.737 24.2396 191.945 24.1094C192.16 23.9727 192.349 23.8099 192.512 23.6211C192.681 23.4258 192.818 23.2109 192.922 22.9766L194.875 24.9395C194.628 25.291 194.341 25.6068 194.016 25.8867C193.697 26.1667 193.348 26.4043 192.971 26.5996C192.6 26.7949 192.206 26.9414 191.789 27.0391C191.379 27.1432 190.956 27.1953 190.52 27.1953C189.784 27.1953 189.09 27.0586 188.439 26.7852C187.795 26.5117 187.229 26.1309 186.74 25.6426C186.258 25.1543 185.878 24.5749 185.598 23.9043C185.318 23.2272 185.178 22.485 185.178 21.6777C185.178 20.8509 185.318 20.0957 185.598 19.4121C185.878 18.7285 186.258 18.1458 186.74 17.6641C187.229 17.1823 187.795 16.8079 188.439 16.541C189.09 16.2741 189.784 16.1406 190.52 16.1406C190.956 16.1406 191.382 16.1927 191.799 16.2969C192.215 16.401 192.609 16.5508 192.98 16.7461C193.358 16.9414 193.71 17.1823 194.035 17.4688C194.361 17.7487 194.647 18.0645 194.895 18.416L189.895 24.4414ZM191.262 18.9434C191.138 18.8978 191.014 18.8685 190.891 18.8555C190.773 18.8424 190.65 18.8359 190.52 18.8359C190.155 18.8359 189.81 18.9043 189.484 19.041C189.165 19.1712 188.885 19.36 188.645 19.6074C188.41 19.8548 188.225 20.1543 188.088 20.5059C187.951 20.8509 187.883 21.2415 187.883 21.6777C187.883 21.7754 187.886 21.8861 187.893 22.0098C187.906 22.1335 187.922 22.2604 187.941 22.3906C187.967 22.5143 187.997 22.6348 188.029 22.752C188.062 22.8691 188.104 22.9733 188.156 23.0645L191.262 18.9434Z" fill="#A855F7"/>
<defs>
<clipPath id="clip0_641_271">
<rect width="19.1113" height="28.6669" fill="white" transform="translate(0 6)"/>
</clipPath>
<clipPath id="clip1_641_271">
<rect width="6.82545" height="8.19054" fill="white" transform="translate(16.3809 16.9207)"/>
</clipPath>
</defs>
</svg>
